<svg width="24" height="24" viewBox="0 0 24 24" fill="none" xmlns="http://www.w3.org/2000/svg">
<path d="M1.51313 15.487L5.67913 19.653C6.24172 20.2154 7.00464 20.5313 7.80013 20.5313C8.59563 20.5313 9.35855 20.2154 9.92113 19.653L22.7871 6.78698C22.9693 6.59838 23.0701 6.34578 23.0678 6.08358C23.0655 5.82138 22.9604 5.57057 22.775 5.38516C22.5895 5.19975 22.3387 5.09459 22.0765 5.09231C21.8143 5.09003 21.5617 5.19082 21.3731 5.37298L8.50713 18.239C8.31961 18.4265 8.0653 18.5318 7.80013 18.5318C7.53497 18.5318 7.28066 18.4265 7.09313 18.239L2.92713 14.073C2.73853 13.8908 2.48593 13.79 2.22373 13.7923C1.96154 13.7946 1.71072 13.8998 1.52532 14.0852C1.33991 14.2706 1.23474 14.5214 1.23246 14.7836C1.23018 15.0458 1.33098 15.2984 1.51313 15.487V15.487Z" fill="white"/>
</svg>
