<svg width="123" height="123" viewBox="0 0 123 123" fill="none" xmlns="http://www.w3.org/2000/svg">
<circle cx="61.5" cy="61.5" r="61.5" fill="#F02B37" fill-opacity="0.2"/>
<g clip-path="url(#clip0_1_374)">
<path d="M88.1475 52.2503L70.8375 35.6603C68.4916 33.339 65.3266 32.0339 62.0264 32.0269C58.7262 32.0199 55.5557 33.3115 53.2 35.6228L35.85 52.2503C34.6365 53.419 33.6704 54.8198 33.009 56.3693C32.3476 57.9188 32.0045 59.5855 32 61.2703V79.5003C32.004 82.8143 33.3222 85.9914 35.6655 88.3347C38.0089 90.6781 41.186 91.9963 44.5 92.0003H79.5C82.814 91.9963 85.9911 90.6781 88.3345 88.3347C90.6778 85.9914 91.996 82.8143 92 79.5003V61.2703C91.9956 59.5853 91.6523 57.9184 90.9904 56.3688C90.3286 54.8192 89.3618 53.4186 88.1475 52.2503ZM56.6975 39.1953C58.1151 37.7903 60.0324 37.0053 62.0283 37.0128C64.0242 37.0203 65.9355 37.8197 67.3425 39.2353L84.21 55.3953L67.3025 72.3053C65.8733 73.6677 63.9745 74.4277 62 74.4277C60.0255 74.4277 58.1267 73.6677 56.6975 72.3053L39.7875 55.3953L56.6975 39.1953ZM87 79.5003C87 81.4894 86.2098 83.3971 84.8033 84.8036C83.3968 86.2101 81.4891 87.0003 79.5 87.0003H44.5C42.5109 87.0003 40.6032 86.2101 39.1967 84.8036C37.7902 83.3971 37 81.4894 37 79.5003V61.2703C37.0025 60.785 37.0519 60.3011 37.1475 59.8253L53.1625 75.8403C55.5143 78.1691 58.6903 79.4755 62 79.4755C65.3097 79.4755 68.4857 78.1691 70.8375 75.8403L86.8525 59.8253C86.9481 60.3011 86.9975 60.785 87 61.2703V79.5003Z" fill="#F02B37"/>
</g>
<defs>
<clipPath id="clip0_1_374">
<rect width="60" height="60" fill="white" transform="translate(32 32)"/>
</clipPath>
</defs>
</svg>
