<svg width="40" height="41" viewBox="0 0 40 41" fill="none" xmlns="http://www.w3.org/2000/svg">
<g clip-path="url(#clip0_1_33)">
<path fill-rule="evenodd" clip-rule="evenodd" d="M8.60603 20.5C8.60603 19.2298 8.81699 18.012 9.19353 16.8698L2.60285 11.8369C1.31836 14.4449 0.594666 17.3835 0.594666 20.5C0.594666 23.6138 1.31747 26.5507 2.60018 29.1569L9.1873 24.1142C8.81433 22.9773 8.60603 21.764 8.60603 20.5Z" fill="#FBBC05"/>
<path fill-rule="evenodd" clip-rule="evenodd" d="M20.178 8.94443C22.9375 8.94443 25.4299 9.9222 27.3882 11.5222L33.0852 5.83332C29.6136 2.81109 25.1628 0.944427 20.178 0.944427C12.439 0.944427 5.78781 5.3702 2.60284 11.8369L9.19353 16.8698C10.7121 12.26 15.0409 8.94443 20.178 8.94443Z" fill="#EB4335"/>
<path fill-rule="evenodd" clip-rule="evenodd" d="M20.178 32.0555C15.0409 32.0555 10.7121 28.74 9.19353 24.1302L2.60284 29.1622C5.78781 35.6297 12.439 40.0555 20.178 40.0555C24.9545 40.0555 29.5148 38.3595 32.9374 35.1817L26.6814 30.3453C24.9163 31.4573 22.6936 32.0555 20.178 32.0555Z" fill="#34A853"/>
<path fill-rule="evenodd" clip-rule="evenodd" d="M38.8712 20.5C38.8712 19.3444 38.6931 18.1 38.4261 16.9444H20.178V24.5H30.6818C30.1566 27.076 28.727 29.0564 26.6814 30.3453L32.9374 35.1818C36.5327 31.8449 38.8712 26.8742 38.8712 20.5Z" fill="#4285F4"/>
</g>
<defs>
<clipPath id="clip0_1_33">
<rect width="40" height="40" fill="white" transform="translate(0 0.5)"/>
</clipPath>
</defs>
</svg>
