<svg width="40" height="40" viewBox="0 0 40 40" fill="none" xmlns="http://www.w3.org/2000/svg">
<path d="M9.33333 6.66667C9.33333 5.19391 8.13943 4 6.66667 4C5.19391 4 4 5.19391 4 6.66667V33.3333C4 34.8061 5.19391 36 6.66667 36C8.13943 36 9.33333 34.8061 9.33333 33.3333V6.66667Z" fill="#F02B37"/>
<path d="M17.3333 6.66667C17.3333 5.19391 16.1394 4 14.6667 4C13.1939 4 12 5.19391 12 6.66667V33.3333C12 34.8061 13.1939 36 14.6667 36C16.1394 36 17.3333 34.8061 17.3333 33.3333V6.66667Z" fill="#F02B37"/>
<path d="M25.9456 6.55872C25.4419 5.17478 23.9116 4.46122 22.5277 4.96493C21.1437 5.46864 20.4302 6.99889 20.9339 8.38283L30.0544 33.4413C30.5581 34.8252 32.0884 35.5388 33.4723 35.0351C34.8563 34.5314 35.5698 33.0011 35.0661 31.6172L25.9456 6.55872Z" fill="#F02B37"/>
</svg>
