<svg width="24" height="24" viewBox="0 0 24 24" fill="none" xmlns="http://www.w3.org/2000/svg">
<path d="M11.9998 15.9984C14.2081 15.9984 15.9983 14.2082 15.9983 11.9999C15.9983 9.79162 14.2081 8.00143 11.9998 8.00143C9.79153 8.00143 8.00134 9.79162 8.00134 11.9999C8.00134 14.2082 9.79153 15.9984 11.9998 15.9984Z" fill="#C4C4C4"/>
<path d="M23.2668 9.42006C21.7164 6.895 18.1897 2.65855 12 2.65855C5.81027 2.65855 2.28358 6.895 0.733158 9.42006C-0.244386 11.0012 -0.244386 12.999 0.733158 14.5802C2.28358 17.1052 5.81027 21.3417 12 21.3417C18.1897 21.3417 21.7164 17.1052 23.2668 14.5802C24.2443 12.999 24.2443 11.0012 23.2668 9.42006ZM12 17.9979C8.68752 17.9979 6.0022 15.3125 6.0022 12.0001C6.0022 8.68763 8.68752 6.00231 12 6.00231C15.3124 6.00231 17.9978 8.68763 17.9978 12.0001C17.9944 15.3112 15.3111 17.9945 12 17.9979Z" fill="#C4C4C4"/>
</svg>
